<svg width="21" height="21" viewBox="0 0 21 21" fill="none" xmlns="http://www.w3.org/2000/svg">
<path d="M18.9375 0.375H2.0625C1.61495 0.375 1.18572 0.55279 0.869257 0.869257C0.55279 1.18572 0.375 1.61495 0.375 2.0625V18.9375C0.375 19.3851 0.55279 19.8143 0.869257 20.1307C1.18572 20.4472 1.61495 20.625 2.0625 20.625H13.527C13.7485 20.6252 13.9679 20.5815 14.1725 20.4964C14.377 20.4113 14.5627 20.2866 14.7188 20.1293L20.1293 14.7188C20.2866 14.5627 20.4113 14.377 20.4964 14.1725C20.5815 13.9679 20.6252 13.7485 20.625 13.527V2.0625C20.625 1.61495 20.4472 1.18572 20.1307 0.869257C19.8143 0.55279 19.3851 0.375 18.9375 0.375ZM7.125 6.28125H13.875C14.0988 6.28125 14.3134 6.37014 14.4716 6.52838C14.6299 6.68661 14.7188 6.90122 14.7188 7.125C14.7188 7.34878 14.6299 7.56339 14.4716 7.72162C14.3134 7.87986 14.0988 7.96875 13.875 7.96875H7.125C6.90122 7.96875 6.68661 7.87986 6.52838 7.72162C6.37014 7.56339 6.28125 7.34878 6.28125 7.125C6.28125 6.90122 6.37014 6.68661 6.52838 6.52838C6.68661 6.37014 6.90122 6.28125 7.125 6.28125ZM10.5 14.7188H7.125C6.90122 14.7188 6.68661 14.6299 6.52838 14.4716C6.37014 14.3134 6.28125 14.0988 6.28125 13.875C6.28125 13.6512 6.37014 13.4366 6.52838 13.2784C6.68661 13.1201 6.90122 13.0312 7.125 13.0312H10.5C10.7238 13.0312 10.9384 13.1201 11.0966 13.2784C11.2549 13.4366 11.3438 13.6512 11.3438 13.875C11.3438 14.0988 11.2549 14.3134 11.0966 14.4716C10.9384 14.6299 10.7238 14.7188 10.5 14.7188ZM7.125 11.3438C6.90122 11.3438 6.68661 11.2549 6.52838 11.0966C6.37014 10.9384 6.28125 10.7238 6.28125 10.5C6.28125 10.2762 6.37014 10.0616 6.52838 9.90338C6.68661 9.74514 6.90122 9.65625 7.125 9.65625H13.875C14.0988 9.65625 14.3134 9.74514 14.4716 9.90338C14.6299 10.0616 14.7188 10.2762 14.7188 10.5C14.7188 10.7238 14.6299 10.9384 14.4716 11.0966C14.3134 11.2549 14.0988 11.3438 13.875 11.3438H7.125ZM13.875 18.5895V13.875H18.5895L13.875 18.5895Z" fill="#949494"/>
</svg>
