<svg width="24" height="27" viewBox="0 0 24 27" fill="none" xmlns="http://www.w3.org/2000/svg">
<path d="M21.7263 0.09375H2.48332C1.91626 0.09375 1.37242 0.311048 0.971451 0.697842C0.570479 1.08464 0.345215 1.60924 0.345215 2.15625V24.8438C0.345215 25.3908 0.570479 25.9154 0.971451 26.3022C1.37242 26.689 1.91626 26.9062 2.48332 26.9062H21.7263C22.2933 26.9062 22.8371 26.689 23.2381 26.3022C23.6391 25.9154 23.8644 25.3908 23.8644 24.8438V2.15625C23.8644 1.60924 23.6391 1.08464 23.2381 0.697842C22.8371 0.311048 22.2933 0.09375 21.7263 0.09375ZM7.82858 3.1875H16.381C16.6645 3.1875 16.9364 3.29615 17.1369 3.48955C17.3374 3.68294 17.45 3.94525 17.45 4.21875C17.45 4.49225 17.3374 4.75456 17.1369 4.94795C16.9364 5.14135 16.6645 5.25 16.381 5.25H7.82858C7.54505 5.25 7.27313 5.14135 7.07264 4.94795C6.87216 4.75456 6.75953 4.49225 6.75953 4.21875C6.75953 3.94525 6.87216 3.68294 7.07264 3.48955C7.27313 3.29615 7.54505 3.1875 7.82858 3.1875ZM19.1605 22.575C18.9325 22.7358 18.6483 22.8042 18.3687 22.7657C18.089 22.7272 17.8361 22.5847 17.6639 22.3687C17.0166 21.5362 16.1773 20.8606 15.2124 20.3952C14.2475 19.9298 13.1836 19.6875 12.1048 19.6875C11.026 19.6875 9.96206 19.9298 8.99717 20.3952C8.03229 20.8606 7.19298 21.5362 6.54572 22.3687C6.44614 22.4968 6.31701 22.6008 6.16857 22.6724C6.02012 22.744 5.85644 22.7812 5.69047 22.7812C5.45868 22.7842 5.23266 22.7115 5.04904 22.575C4.82222 22.4109 4.67226 22.1666 4.63217 21.8958C4.59207 21.6251 4.66511 21.3501 4.83523 21.1313C5.78133 19.9062 7.04378 18.9417 8.49674 18.334C7.70179 17.6324 7.14518 16.7155 6.89989 15.7035C6.6546 14.6914 6.73209 13.6315 7.12219 12.6627C7.51229 11.6939 8.19679 10.8614 9.08593 10.2744C9.97508 9.68745 11.0274 9.37336 12.1048 9.37336C13.1822 9.37336 14.2345 9.68745 15.1236 10.2744C16.0128 10.8614 16.6973 11.6939 17.0874 12.6627C17.4775 13.6315 17.555 14.6914 17.3097 15.7035C17.0644 16.7155 16.5078 17.6324 15.7128 18.334C17.1658 18.9417 18.4282 19.9062 19.3743 21.1313C19.4586 21.2396 19.5199 21.3629 19.5547 21.4941C19.5895 21.6253 19.5973 21.7618 19.5774 21.8958C19.5576 22.0299 19.5105 22.1589 19.439 22.2754C19.3675 22.3919 19.2728 22.4937 19.1605 22.575ZM15.3119 14.5312C15.3119 15.1431 15.1238 15.7413 14.7714 16.25C14.419 16.7588 13.9181 17.1553 13.3321 17.3895C12.7461 17.6237 12.1012 17.6849 11.4791 17.5656C10.857 17.4462 10.2855 17.1515 9.83698 16.7189C9.38845 16.2862 9.083 15.7349 8.95925 15.1348C8.83551 14.5347 8.89902 13.9126 9.14176 13.3473C9.3845 12.782 9.79557 12.2988 10.323 11.9589C10.8504 11.6189 11.4705 11.4375 12.1048 11.4375C12.9543 11.4409 13.768 11.7679 14.3687 12.3474C14.9694 12.9268 15.3084 13.7118 15.3119 14.5312Z" fill="#949494"/>
</svg>
